REM DIRINDEX 1\2,1\3,1\4,1\5
REM DIRNAME folder01,folder02,folder03,folder04,folder05
TITLE ""
FILE "P1Q_t_0640-0649.mp3" MP3
  TRACK 01 AUDIO
    TITLE "3:cjc005_2823"
    INDEX 01 00:00:00
  TRACK 02 AUDIO
    TITLE "0:"
    INDEX 01 00:01:01
  TRACK 03 AUDIO
    TITLE "4:cjc005_2824"
    INDEX 01 00:01:32
  TRACK 04 AUDIO
    TITLE "0:"
    INDEX 01 00:02:61
  TRACK 05 AUDIO
    TITLE "5:cjc005_2825"
    INDEX 01 00:03:10
  TRACK 06 AUDIO
    TITLE "0:"
    INDEX 01 00:06:37
  TRACK 07 AUDIO
    TITLE "3:cjc005_2826"
    INDEX 01 00:07:17
  TRACK 08 AUDIO
    TITLE "0:"
    INDEX 01 00:08:38
  TRACK 09 AUDIO
    TITLE "4:cjc005_2827"
    INDEX 01 00:08:66
  TRACK 10 AUDIO
    TITLE "0:"
    INDEX 01 00:10:23
  TRACK 11 AUDIO
    TITLE "5:cjc005_2828"
    INDEX 01 00:10:47
  TRACK 12 AUDIO
    TITLE "0:"
    INDEX 01 00:14:49
  TRACK 13 AUDIO
    TITLE "3:cjc005_2829"
    INDEX 01 00:15:30
  TRACK 14 AUDIO
    TITLE "0:"
    INDEX 01 00:16:53
  TRACK 15 AUDIO
    TITLE "4:cjc005_2830"
    INDEX 01 00:17:04
  TRACK 16 AUDIO
    TITLE "0:"
    INDEX 01 00:18:13
  TRACK 17 AUDIO
    TITLE "5:cjc005_2831"
    INDEX 01 00:18:42
  TRACK 18 AUDIO
    TITLE "0:"
    INDEX 01 00:22:40
  TRACK 19 AUDIO
    TITLE "3:cjc005_2832"
    INDEX 01 00:23:20
  TRACK 20 AUDIO
    TITLE "0:"
    INDEX 01 00:24:31
  TRACK 21 AUDIO
    TITLE "4:cjc005_2833"
    INDEX 01 00:24:57
  TRACK 22 AUDIO
    TITLE "0:"
    INDEX 01 00:26:13
  TRACK 23 AUDIO
    TITLE "5:cjc005_2834"
    INDEX 01 00:26:36
  TRACK 24 AUDIO
    TITLE "0:"
    INDEX 01 00:30:20
  TRACK 25 AUDIO
    TITLE "3:cjc005_2835"
    INDEX 01 00:31:02
  TRACK 26 AUDIO
    TITLE "0:"
    INDEX 01 00:32:07
  TRACK 27 AUDIO
    TITLE "4:cjc005_2836"
    INDEX 01 00:32:33
  TRACK 28 AUDIO
    TITLE "0:"
    INDEX 01 00:33:73
  TRACK 29 AUDIO
    TITLE "5:cjc005_2837"
    INDEX 01 00:34:28
  TRACK 30 AUDIO
    TITLE "0:"
    INDEX 01 00:37:07
  TRACK 31 AUDIO
    TITLE "3:cjc005_2838"
    INDEX 01 00:37:59
  TRACK 32 AUDIO
    TITLE "0:"
    INDEX 01 00:38:55
  TRACK 33 AUDIO
    TITLE "4:cjc005_2839"
    INDEX 01 00:39:09
  TRACK 34 AUDIO
    TITLE "0:"
    INDEX 01 00:40:46
  TRACK 35 AUDIO
    TITLE "5:cjc005_2840"
    INDEX 01 00:41:04
  TRACK 36 AUDIO
    TITLE "0:"
    INDEX 01 00:43:35
  TRACK 37 AUDIO
    TITLE "3:cjc005_2841"
    INDEX 01 00:44:22
  TRACK 38 AUDIO
    TITLE "0:"
    INDEX 01 00:45:37
  TRACK 39 AUDIO
    TITLE "4:cjc005_2842"
    INDEX 01 00:45:65
  TRACK 40 AUDIO
    TITLE "0:"
    INDEX 01 00:48:08
  TRACK 41 AUDIO
    TITLE "5:cjc005_2843"
    INDEX 01 00:48:34
  TRACK 42 AUDIO
    TITLE "0:"
    INDEX 01 00:52:22
  TRACK 43 AUDIO
    TITLE "3:cjc005_2844"
    INDEX 01 00:52:73
  TRACK 44 AUDIO
    TITLE "0:"
    INDEX 01 00:54:25
  TRACK 45 AUDIO
    TITLE "4:cjc005_2845"
    INDEX 01 00:54:52
  TRACK 46 AUDIO
    TITLE "0:"
    INDEX 01 00:56:08
  TRACK 47 AUDIO
    TITLE "5:cjc005_2846"
    INDEX 01 00:56:27
  TRACK 48 AUDIO
    TITLE "0:"
    INDEX 01 01:00:43
  TRACK 49 AUDIO
    TITLE "3:cjc005_2847"
    INDEX 01 01:01:19
  TRACK 50 AUDIO
    TITLE "0:"
    INDEX 01 01:02:40
  TRACK 51 AUDIO
    TITLE "4:cjc005_2848"
    INDEX 01 01:02:67
  TRACK 52 AUDIO
    TITLE "0:"
    INDEX 01 01:04:23
  TRACK 53 AUDIO
    TITLE "5:cjc005_2849"
    INDEX 01 01:04:48
  TRACK 54 AUDIO
    TITLE "0:"
    INDEX 01 01:08:23
  TRACK 55 AUDIO
    TITLE "3:cjc005_2850"
    INDEX 01 01:09:05
  TRACK 56 AUDIO
    TITLE "0:"
    INDEX 01 01:10:22
  TRACK 57 AUDIO
    TITLE "4:cjc005_2851"
    INDEX 01 01:10:51
  TRACK 58 AUDIO
    TITLE "0:"
    INDEX 01 01:12:01
  TRACK 59 AUDIO
    TITLE "5:cjc005_2852"
    INDEX 01 01:12:28
  TRACK 60 AUDIO
    TITLE "0:"
    INDEX 01 01:15:62
